<?xml version="1.0" encoding="utf-8"?>
<!-- Generator: Adobe Illustrator 16.0.0, SVG Export Plug-In . SVG Version: 6.00 Build 0)  -->
<!DOCTYPE svg PUBLIC "-//W3C//DTD SVG 1.1//EN" "http://www.w3.org/Graphics/SVG/1.1/DTD/svg11.dtd">
<svg version="1.1" id="Capa_1" xmlns="http://www.w3.org/2000/svg" xmlns:xlink="http://www.w3.org/1999/xlink" x="0px" y="0px"
	 width="612px" height="612px" viewBox="0 198 612 612" enable-background="new 0 198 612 612" xml:space="preserve">
<g>
	<path fill="#FFFFFF" d="M489.6,340.8c-13.015,0-25.184,3.56-35.699,9.66c-10.517-6.1-22.686-9.66-35.7-9.66
		c-39.362,0-71.4,32.028-71.4,71.4s32.038,71.399,71.4,71.399c13.015,0,25.184-3.56,35.7-9.659
		c10.516,6.1,22.685,9.659,35.699,9.659c39.362,0,71.4-32.027,71.4-71.399S528.962,340.8,489.6,340.8z M469.2,412.2
		c0,14.219-5.875,27.07-15.3,36.332c-9.425-9.262-15.301-22.113-15.301-36.332s5.876-27.071,15.301-36.333
		C463.325,385.129,469.2,397.981,469.2,412.2z M367.2,412.2c0-28.122,22.878-51,51-51c6.436,0,12.546,1.326,18.228,3.519
		C425.136,377.347,418.2,393.962,418.2,412.2c0,18.237,6.936,34.854,18.228,47.48c-5.682,2.193-11.792,3.52-18.228,3.52
		C390.078,463.2,367.2,440.321,367.2,412.2z M489.6,463.2c-6.436,0-12.546-1.326-18.227-3.52
		c11.291-12.627,18.227-29.243,18.227-47.48c0-18.238-6.936-34.854-18.227-47.481c5.681-2.193,11.791-3.519,18.227-3.519
		c28.122,0,51,22.878,51,51C540.6,440.321,517.722,463.2,489.6,463.2z"/>
	<path fill="#FFFFFF" d="M568.986,279.6H43.013C19.298,279.6,0,298.898,0,322.613v362.773C0,709.102,19.298,728.4,43.013,728.4
		h525.973c23.715,0,43.014-19.299,43.014-43.014V322.613C612,298.898,592.701,279.6,568.986,279.6z M591.6,685.387
		c0,12.464-10.139,22.613-22.613,22.613H43.013C30.539,708,20.4,697.851,20.4,685.387V322.613C20.4,310.149,30.539,300,43.013,300
		h525.973c12.475,0,22.613,10.149,22.613,22.613V685.387z"/>
	<path fill="#FFFFFF" d="M61.2,381.6H153c5.641,0,10.2-4.57,10.2-10.2s-4.56-10.2-10.2-10.2H61.2c-5.641,0-10.2,4.569-10.2,10.2
		S55.56,381.6,61.2,381.6z"/>
	<path fill="#FFFFFF" d="M285.6,361.2h-91.8c-5.641,0-10.2,4.569-10.2,10.2s4.559,10.2,10.2,10.2h91.8c5.641,0,10.2-4.57,10.2-10.2
		S291.241,361.2,285.6,361.2z"/>
	<path fill="#FFFFFF" d="M61.2,432.6h10.2c5.641,0,10.2-4.569,10.2-10.199c0-5.631-4.56-10.2-10.2-10.2H61.2
		c-5.641,0-10.2,4.569-10.2,10.2C51,428.03,55.56,432.6,61.2,432.6z"/>
	<path fill="#FFFFFF" d="M112.2,412.2c-5.641,0-10.2,4.569-10.2,10.2c0,5.63,4.56,10.199,10.2,10.199h20.4
		c5.641,0,10.2-4.569,10.2-10.199c0-5.631-4.559-10.2-10.2-10.2H112.2z"/>
	<path fill="#FFFFFF" d="M193.8,422.4c0-5.631-4.559-10.2-10.2-10.2h-10.2c-5.641,0-10.2,4.569-10.2,10.2
		c0,5.63,4.559,10.199,10.2,10.199h10.2C189.241,432.6,193.8,428.03,193.8,422.4z"/>
	<path fill="#FFFFFF" d="M244.8,432.6c5.641,0,10.2-4.569,10.2-10.199c0-5.631-4.56-10.2-10.2-10.2h-20.4
		c-5.641,0-10.2,4.569-10.2,10.2c0,5.63,4.559,10.199,10.2,10.199H244.8z"/>
	<path fill="#FFFFFF" d="M278.46,415.158c-1.948,1.938-3.06,4.488-3.06,7.242c0,2.754,1.112,5.304,2.958,7.241
		c1.928,1.836,4.59,2.958,7.242,2.958s5.304-1.122,7.242-2.958c1.836-1.938,2.958-4.59,2.958-7.241c0-2.652-1.122-5.304-2.958-7.141
		C289.068,411.384,282.132,411.384,278.46,415.158z"/>
	<path fill="#FFFFFF" d="M51,657h112.2v-81.6H51V657z M71.4,595.8h71.4v40.8H71.4V595.8z"/>
	<path fill="#FFFFFF" d="M183.6,657h112.2v-81.6H183.6V657z M204,595.8h71.4v40.8H204V595.8z"/>
	<path fill="#FFFFFF" d="M316.2,657h112.2v-81.6H316.2V657z M336.6,595.8H408v40.8h-71.4V595.8z"/>
	<path fill="#FFFFFF" d="M448.8,657H561v-81.6H448.8V657z M469.2,595.8H540.6v40.8H469.2V595.8z"/>
</g>
</svg>
