<?xml version="1.0" encoding="UTF-8"?>
<!DOCTYPE svg PUBLIC "-//W3C//DTD SVG 1.1//EN" "http://www.w3.org/Graphics/SVG/1.1/DTD/svg11.dtd">
<svg version="1.1" id="Capa_1" xmlns="http://www.w3.org/2000/svg" xmlns:xlink="http://www.w3.org/1999/xlink" x="0px" y="0px" width="409.5px" height="224px" viewBox="0 0 409.5 224" xml:space="preserve">
<path fill="#E2001A" d="M406.425,169.406c-0.016-0.03-0.03-0.038-0.066-0.061c-0.03-0.021-0.06-0.066-0.111-0.088  c0-0.021,0-0.021,0-0.021c-0.022-0.008-0.036-0.022-0.06-0.037C310.928,106.775,253.097,32.581,231.184,4.204  c-0.016-0.03-0.03-0.015-0.052-0.03c-0.244-0.316-0.612-0.53-1.055-0.53c-0.309,0-0.589,0.118-0.818,0.294  c-0.028,0.022-0.052,0.022-0.08,0.044C212.159,19.513,21.454,167.157,4.561,180.145c-0.177,0.141-0.583,0.457-0.649,0.501  c-0.398,0.311-0.575,0.708-0.575,1.128c0,0.008-0.015,0.022-0.015,0.036c0,0.023,0.015,0.03,0.015,0.075  c0,0.154,0.037,0.287,0.089,0.449c0,0.007,0,0.007,0.014,0.021c0.007,0.022,0.015,0.037,0.015,0.052  c0.074,0.141,0.169,0.288,0.272,0.392c0.007,0.021,0.007,0.021,0.007,0.021c0.118,0.11,0.25,0.192,0.406,0.266  c0.022,0,0.037,0.014,0.066,0.029c0.089,0.036,0.207,0.059,0.324,0.073c0.059,0,0.111,0.022,0.169,0.022  c0.229,0,0.45-0.073,0.642-0.177c0.007,0,0.015,0,0.037-0.021c0.302-0.134,2.041-0.959,2.329-1.106  c8.558-4.238,44.276-19.688,95.349-40.385c68.143-27.641,79.693-2.196,102.307,54.161c3.272,8.145,6.229,16.762,9.723,25.281  c0,0.015,0,0.015,0.014,0.015c0,0.015,0.008,0.03,0.008,0.03c0.066,0.153,0.162,0.272,0.258,0.376  c0.03,0.028,0.045,0.044,0.074,0.066c0.103,0.096,0.222,0.184,0.354,0.235c0.021,0.016,0.037,0.029,0.059,0.029  c0.155,0.066,0.324,0.118,0.509,0.118s0.361-0.052,0.523-0.118c0.007,0,0.007-0.014,0.021-0.014  c0.148-0.067,0.273-0.155,0.392-0.259c0.015-0.015,0.021-0.03,0.036-0.037c0.126-0.125,0.229-0.266,0.303-0.442  c5.101-12.965,20.262-65.018,40.524-78.263c18.618-12.17,27.773-14.631,107.577,14.344c11.505,4.179,24.493,9.021,39.19,14.579  c0.016,0,0.022,0.015,0.044,0.015c0.155,0.06,0.311,0.081,0.487,0.081c0.752,0,1.363-0.604,1.363-1.363  C406.822,169.98,406.667,169.648,406.425,169.406z"/>
</svg>