<?xml version="1.0" encoding="utf-8"?>
<!-- Generator: Adobe Illustrator 16.0.0, SVG Export Plug-In . SVG Version: 6.00 Build 0)  -->
<!DOCTYPE svg PUBLIC "-//W3C//DTD SVG 1.1//EN" "http://www.w3.org/Graphics/SVG/1.1/DTD/svg11.dtd">
<svg version="1.1" id="Capa_1" xmlns="http://www.w3.org/2000/svg" xmlns:xlink="http://www.w3.org/1999/xlink" x="0px" y="0px"
	 width="612px" height="612px" viewBox="0 0 612 612" enable-background="new 0 0 612 612" xml:space="preserve">
<g>
	<g>
		<path fill="#FFFFFF" d="M393.51,420.865v-10.656c3.012-2.433,5.906-5.097,8.688-7.877c22.258-24.508,36.273-55.375,40.076-88.262
			c20.004-3.047,38.033-13.768,50.271-29.884c16.795-23.744,18.301-57.914,4.285-100.771c-0.824-2.471-2.455-4.594-4.633-6.022
			l-6.371-4.286c0.939-38.669-12.424-76.326-37.529-105.752c-31.158-35.096-78.994-52.818-142.353-53.051
			c-63.243,0-111.196,17.955-142.354,52.586c-25.104,29.427-38.468,67.084-37.529,105.753l-6.371,4.286
			c-2.178,1.429-3.809,3.552-4.633,6.022c-14.015,43.089-12.509,77.026,4.286,100.771c12.19,16.229,30.22,27.071,50.27,30.23
			c3.819,32.938,17.878,63.851,40.193,88.377c2.758,2.774,5.657,5.404,8.687,7.877v10.656
			c-44.363,8.571-221.465,50.154-218.454,168.3c0,6.396,5.186,11.583,11.583,11.583h588.759c6.396,0,11.582-5.187,11.582-11.583
			C614.975,471.019,437.871,429.437,393.51,420.865z M159.883,290.55c-10.034-3.369-18.777-9.761-25.031-18.301l0.59,0.118
			c-11.807-17.239-12.87-43.332-2.362-77.81l8.62-5.785c3.626-2.421,5.624-6.641,5.195-10.98
			c-1.986-35.289,9.491-70.018,32.115-97.172c26.684-30.227,69.545-45.341,126.928-45.575
			C363.32,34.808,406.18,50.394,433.336,80.62c22.623,27.154,34.102,61.883,32.115,97.172c-0.428,4.34,1.568,8.56,5.195,10.98
			l8.621,5.785c10.508,34.359,9.797,60.57-2.363,77.81c-6.295,8.547-15.078,14.938-25.148,18.301
			c14.242-16.204,21.201-37.55,19.246-59.036c-2.213-12.927-8.951-24.644-19.01-33.059C446.916,80.502,364.146,67.277,328.49,67.277
			c-7.547-0.021-15.088,0.531-22.551,1.653c-7.464-1.123-15.004-1.675-22.553-1.653c-35.421,0-118.07,12.987-123.502,131.296
			c-10.123,8.347-16.945,20.024-19.245,32.941C138.668,253.002,145.629,274.352,159.883,290.55z M432.5,195.806
			c-51.174,2.957-102.025-9.811-145.735-36.587c-4.946-3.474-11.692-2.799-15.854,1.586c-24.391,26.22-68.904,32.318-90.368,33.659
			c6.584-86.221,58.781-105.002,102.685-105.002c6.988-0.051,13.967,0.521,20.854,1.708c1.609,0.328,3.269,0.328,4.878,0
			c6.887-1.183,13.867-1.755,20.854-1.708c43.539,0,95.979,19.269,102.076,106.222L432.5,195.806z M186.785,290.032l0.48,0.119
			c0.025-2.958-1.042-5.82-3-8.039c-16.439-18.839-23.999-35.997-21.959-50.156c0.978-7.887,4.873-15.121,10.919-20.278
			c15.839,0,71.996-3.001,107.992-34.078c40.541,23.307,86.43,35.71,133.191,35.997c8.039,0,16.197,0,24.717-1.319
			c5.881,5.022,9.723,12.021,10.799,19.679c2.041,13.919-5.52,31.317-21.957,50.156c-1.959,2.219-3.025,5.08-3,8.039
			c0,0,1,4.4,1,8.24l-69.836,37.438c-13.859-13.121-36.73-14.522-49.852-0.664c-13.122,13.859-12.523,35.732,1.336,48.854
			s35.732,12.522,48.852-1.337c6.082-6.423,9.469-14.931,9.465-23.774c0.055-1.08,0.055-4.16,0-5.239l55.076-29.519
			c-4.729,23.661-15.852,47.572-32.158,65.355c-21.271,20.479-50.066,31.251-79.555,29.758h-6
			c-29.426,1.461-58.157-9.257-79.436-29.638C185.945,351.827,186.785,290.633,186.785,290.032z M349.152,358.812
			c0,9.739-7.955,17.638-17.771,17.638c-9.811,0-17.771-7.895-17.771-17.638c0-9.742,7.959-17.639,17.771-17.639
			C341.197,341.175,349.152,349.071,349.152,358.812z M298.5,578.916H19.411c9.431-89.647,155.182-127.129,200.782-136.799v21.366
			c0,27.097,32.946,47.749,78.307,51.21L298.5,578.916L298.5,578.916z M234.91,465.555v-0.385v-43.692
			c21.236,9.85,44.435,14.742,67.838,14.31h6.389c23.404,0.434,46.602-4.46,67.838-14.31v44.077c0,12.137-27.723,29.64-71.031,29.64
			C262.633,495.194,234.91,477.69,234.91,465.555z M314.357,578.787v-64.248c45.045-3.082,77.76-23.708,77.76-50.852v-20.746
			c45.639,9.484,189.662,46.705,199.383,135.846H314.357L314.357,578.787z"/>
	</g>
</g>
</svg>
