<?xml version="1.0" encoding="utf-8"?>
<!-- Generator: Adobe Illustrator 16.0.0, SVG Export Plug-In . SVG Version: 6.00 Build 0)  -->
<!DOCTYPE svg PUBLIC "-//W3C//DTD SVG 1.1//EN" "http://www.w3.org/Graphics/SVG/1.1/DTD/svg11.dtd">
<svg version="1.1" id="Capa_1" xmlns="http://www.w3.org/2000/svg" xmlns:xlink="http://www.w3.org/1999/xlink" x="0px" y="0px"
	 width="612px" height="612px" viewBox="0 198 612 612" enable-background="new 0 198 612 612" xml:space="preserve">
<g>
	<g>
		<path fill="#FFFFFF" d="M587.77,333.036L309.897,198.891c-2.464-1.188-5.332-1.188-7.795,0L24.23,333.036
			c-3.098,1.496-5.067,4.633-5.067,8.073V666.89c0,3.44,1.969,6.578,5.067,8.073l277.873,134.146
			c1.23,0.594,2.564,0.892,3.897,0.892s2.666-0.298,3.897-0.892L587.77,674.963c3.1-1.495,5.067-4.633,5.067-8.073V341.11
			C592.837,337.667,590.867,334.532,587.77,333.036z M306,216.919l257.252,124.189l-74.572,36c-0.473-0.36-0.971-0.692-1.519-0.957
			L231.658,252.809L306,216.919z M211.411,262.945l256.878,124.009l-52.612,25.399L158.906,288.395L211.411,262.945z
			 M474.299,403.961v93.887l-49.143,23.726v-93.888L474.299,403.961z M574.907,661.265L314.965,786.751V480.88l62.005-29.933
			c4.458-2.152,6.327-7.513,4.175-11.972c-2.151-4.458-7.512-6.328-11.971-4.176L306,465.3l-24.858-12.001
			c-4.459-2.155-9.818-0.284-11.971,4.175c-2.153,4.459-0.284,9.818,4.175,11.972l23.688,11.436v305.871L37.093,661.263V355.392
			l197.944,95.56c1.256,0.605,2.584,0.894,3.891,0.894c3.333,0,6.534-1.866,8.079-5.068c2.153-4.458,0.284-9.818-4.175-11.972
			L48.749,341.109l89.057-42.993l269.295,130.006c0.04,0.055,0.084,0.104,0.125,0.157v107.577c0,3.085,1.586,5.951,4.199,7.594
			c1.451,0.911,3.106,1.371,4.768,1.371c1.329,0,2.662-0.295,3.896-0.893l67.072-32.38c3.099-1.495,5.066-4.632,5.066-8.073V395.306
			l82.68-39.914V661.265L574.907,661.265z"/>
	</g>
</g>
<g>
	<g>
		<path fill="#FFFFFF" d="M234.904,597.393l-139.55-67.104c-4.459-2.152-9.818-0.283-11.971,4.177
			c-2.152,4.458-0.282,9.818,4.176,11.971l139.55,67.104c1.256,0.606,2.584,0.896,3.891,0.896c3.333,0,6.533-1.867,8.079-5.069
			C241.231,604.904,239.362,599.545,234.904,597.393z"/>
	</g>
</g>
<line fill="#FFFFFF" stroke="#FFFFFF" stroke-width="15" stroke-linecap="round" stroke-miterlimit="10" x1="111.638" y1="604.872" x2="90.137" y2="538.958"/>
<line fill="#FFFFFF" stroke="#FFFFFF" stroke-width="15" stroke-linecap="round" stroke-miterlimit="10" x1="112.544" y1="488.37" x2="90.429" y2="537.45"/>
</svg>
