<?xml version="1.0" encoding="utf-8"?>
<!-- Generator: Adobe Illustrator 16.0.0, SVG Export Plug-In . SVG Version: 6.00 Build 0)  -->
<!DOCTYPE svg PUBLIC "-//W3C//DTD SVG 1.1//EN" "http://www.w3.org/Graphics/SVG/1.1/DTD/svg11.dtd">
<svg version="1.1" id="Capa_1" xmlns="http://www.w3.org/2000/svg" xmlns:xlink="http://www.w3.org/1999/xlink" x="0px" y="0px"
	 width="302.271px" height="322.24px" viewBox="0 0 302.271 322.24" enable-background="new 0 0 302.271 322.24"
	 xml:space="preserve">
<g>
	<path d="M0,95.653v172.731c0,26.77,21.7,53.855,48.472,53.855h205.327c26.771,0,48.472-27.086,48.472-53.855V95.653H0z
		 M274.654,261.926c0,21.879-17.735,34.229-39.616,34.229H67.23c-21.878,0-39.613-12.35-39.613-34.229V121.74h247.037V261.926z"/>
	<g>
		<g>
			<path d="M100.706,84.025c0-29.05,12.841-56.856,50.429-56.856c41.85,0,50.525,31.342,50.525,57.043v68.812h25.374V83.99
				c0-46.388-33.981-83.99-75.899-83.99c-41.922,0-75.903,37.603-75.903,83.99v69.033h25.374L100.706,84.025z"/>
		</g>
		<path d="M100.73,152.991c0,7.348-5.704,13.298-12.756,13.298c-7.039,0-12.742-5.95-12.742-13.298
			c0-7.339,5.704-13.292,12.742-13.292C95.026,139.7,100.73,145.652,100.73,152.991z"/>
		<path d="M227.034,153.613c0,7.693-5.629,13.921-12.58,13.921c-6.945,0-12.578-6.228-12.578-13.921
			c0-7.683,5.633-13.914,12.578-13.914C221.405,139.7,227.034,145.931,227.034,153.613z"/>
	</g>
</g>
</svg>
