<?xml version="1.0" encoding="utf-8"?>
<!-- Generator: Adobe Illustrator 16.0.0, SVG Export Plug-In . SVG Version: 6.00 Build 0)  -->
<!DOCTYPE svg PUBLIC "-//W3C//DTD SVG 1.1//EN" "http://www.w3.org/Graphics/SVG/1.1/DTD/svg11.dtd">
<svg version="1.1" id="Capa_1" xmlns="http://www.w3.org/2000/svg" xmlns:xlink="http://www.w3.org/1999/xlink" x="0px" y="0px"
	 width="324px" height="352.78px" viewBox="0 0 324 352.78" enable-background="new 0 0 324 352.78" xml:space="preserve">
<path id="User" d="M318.27,305.32c-3.79-14.07-4.86-25.64-26.44-33.61c-26.45-9.78-75.82-9.15-75.82-9.15v-32.8
	c25.05-17.79,41.49-47.69,41.49-81.57v-49.4c0-54.55-42.6-98.78-95.17-98.78c-52.57,0-95.17,44.23-95.17,98.78v49.4
	c0,33.58,16.14,63.23,40.81,81.08v33.29c0,0-49.37-0.63-75.82,9.15c-21.58,7.98-22.65,19.54-26.44,33.61
	C1.25,321.93,0,352.78,0,352.78h324C324,352.78,322.75,321.93,318.27,305.32z"/>
</svg>
