<?xml version="1.0" encoding="utf-8"?>
<!-- Generator: Adobe Illustrator 16.0.0, SVG Export Plug-In . SVG Version: 6.00 Build 0)  -->
<!DOCTYPE svg PUBLIC "-//W3C//DTD SVG 1.1//EN" "http://www.w3.org/Graphics/SVG/1.1/DTD/svg11.dtd">
<svg version="1.1" id="Layer_1" xmlns="http://www.w3.org/2000/svg" xmlns:xlink="http://www.w3.org/1999/xlink" x="0px" y="0px"
	 width="612px" height="612px" viewBox="0 198 612 612" enable-background="new 0 198 612 612" xml:space="preserve">
<g>
	<g>
		<path fill="#FFFFFF" d="M569.157,474.551l-15.849-63.393c4.333-0.92,7.585-4.765,7.585-9.37v-10.221
			c0-22.192-18.056-40.246-40.246-40.246H448.46v-21.083c0-10.92-8.884-19.804-19.804-19.804H60.688
			c-10.92,0-19.804,8.883-19.804,19.804V504c0,5.292,4.29,9.583,9.583,9.583c5.292,0,9.583-4.29,9.583-9.583V330.237
			c0-0.353,0.286-0.638,0.638-0.638h367.966c0.353,0,0.639,0.286,0.639,0.638v173.765c0,5.292,4.29,9.583,9.583,9.583
			c5.291,0,9.583-4.29,9.583-9.583V493.14h113.039c0.01,0,0.017,0.002,0.025,0.002c0.01,0,0.018-0.001,0.026-0.001
			c13.909,0.01,25.721,9.14,29.777,21.72H561.53c-5.292,0-9.583,4.29-9.583,9.583v20.442c0,16.557,13.469,30.025,30.025,30.025
			h10.86v42.162h-25.056c-8.231-23.767-30.824-40.886-57.354-40.886c-26.53,0-49.124,17.119-57.354,40.886h-4.614v-72.188
			c0-5.292-4.29-9.583-9.583-9.583c-5.291,0-9.583,4.29-9.583,9.583v72.186H230.477c-8.231-23.767-30.824-40.886-57.354-40.886
			S124,593.304,115.77,617.07H60.688c-0.353,0-0.638-0.285-0.638-0.638v-21.082h41.524c5.292,0,9.583-4.29,9.583-9.583
			s-4.29-9.583-9.583-9.583H9.583c-5.292,0-9.583,4.29-9.583,9.583s4.29,9.583,9.583,9.583h31.303v21.082
			c0,10.92,8.883,19.804,19.804,19.804h51.762c-0.002,0.213-0.017,0.424-0.017,0.638c0,33.465,27.226,60.688,60.688,60.688
			s60.688-27.224,60.688-60.688c0-0.215-0.014-0.425-0.017-0.638h215.957c-0.003,0.213-0.017,0.424-0.017,0.638
			c0,33.465,27.226,60.688,60.688,60.688s60.688-27.224,60.688-60.688c0-0.215-0.015-0.425-0.017-0.638h31.32
			c5.292,0,9.583-4.29,9.583-9.583V524.441C612,499.206,593.381,478.238,569.157,474.551z M448.46,370.485h72.188
			c11.624,0,21.081,9.457,21.081,21.082v0.638H448.46V370.485z M448.46,473.975v-62.605h85.147l15.651,62.605H448.46z
			 M173.123,678.401c-22.896,0-41.524-18.627-41.524-41.524s18.628-41.524,41.524-41.524c22.896,0,41.524,18.627,41.524,41.524
			S196.02,678.401,173.123,678.401z M510.426,678.401c-22.896,0-41.523-18.627-41.523-41.524s18.627-41.524,41.523-41.524
			s41.524,18.627,41.524,41.524S533.322,678.401,510.426,678.401z M592.836,555.745h-10.861c-5.988,0-10.86-4.872-10.86-10.86
			v-10.861h21.72v21.722H592.836z"/>
	</g>
</g>
<g>
	<g>
		<path fill="#FFFFFF" d="M173.123,617.073c-10.92,0-19.804,8.883-19.804,19.804c0,10.92,8.883,19.804,19.804,19.804
			s19.804-8.884,19.804-19.804C192.927,625.956,184.043,617.073,173.123,617.073z"/>
	</g>
</g>
<g>
	<g>
		<path fill="#FFFFFF" d="M510.426,617.073c-10.92,0-19.804,8.883-19.804,19.804c0,10.92,8.884,19.804,19.804,19.804
			c10.921,0,19.804-8.884,19.804-19.804C530.229,625.956,521.347,617.073,510.426,617.073z"/>
	</g>
</g>
<g>
	<g>
		<path fill="#FFFFFF" d="M397.991,576.188H254.893c-5.292,0-9.583,4.29-9.583,9.583s4.29,9.583,9.583,9.583h143.098
			c5.292,0,9.583-4.29,9.583-9.583S403.284,576.188,397.991,576.188z"/>
	</g>
</g>
<g>
	<g>
		<path fill="#FFFFFF" d="M152.681,535.303H30.025c-5.292,0-9.583,4.29-9.583,9.583s4.29,9.583,9.583,9.583h122.656
			c5.292,0,9.583-4.29,9.583-9.583S157.973,535.303,152.681,535.303z"/>
	</g>
</g>
<g>
	<g>
		<path fill="#FFFFFF" d="M333.219,405.231c-3.741-3.741-9.811-3.741-13.552,0.001l-85.216,85.215l-44.331-44.33
			c-3.743-3.743-9.81-3.743-13.551,0c-3.743,3.742-3.743,9.809,0,13.551l51.106,51.107c1.871,1.871,4.324,2.807,6.775,2.807
			c2.451,0,4.905-0.936,6.775-2.807l91.991-91.992C336.96,415.04,336.96,408.974,333.219,405.231z"/>
	</g>
</g>
</svg>
